<?xml version="1.0" encoding="UTF-8"?>
<svg fill="#6666cc" width="52px" height="52px" enable-background="new 0 0 52 52" version="1.1" viewBox="0 0 52 52" xml:space="preserve" xmlns="http://www.w3.org/2000/svg">
	<path d="M26,0C11.664,0,0,11.663,0,26s11.664,26,26,26s26-11.663,26-26S40.336,0,26,0z M26,50C12.767,50,2,39.233,2,26   S12.767,2,26,2s24,10.767,24,24S39.233,50,26,50z"/>
	<path d="m26 10c-0.552 0-1 0.447-1 1v22c0 0.553 0.448 1 1 1s1-0.447 1-1v-22c0-0.553-0.448-1-1-1z"/>
	<path d="m26 37c-0.552 0-1 0.447-1 1v2c0 0.553 0.448 1 1 1s1-0.447 1-1v-2c0-0.553-0.448-1-1-1z"/>
</svg>